inDegrees=no
num_controls=7
num_derivatives=13
num_iterations=136
num_multipliers=7
num_parameters=0
num_slacks=7
num_states=26
objective=0.476949
objective_accelerations=0.044471
objective_balance=0.003671
objective_effort=0.040671
objective_height=0.382477
objective_ligament=0.005659
solver_duration=1907.914123
status=Solve_Succeeded
success=true
DataType=double
version=3
OpenSimVersion=4.5
endheader
time	/jointset/ground_pelvis/pelvis_tilt/value	/jointset/ground_pelvis/pelvis_tx/value	/jointset/ground_pelvis/pelvis_ty/value	/jointset/hip_l/hip_flexion_l/value	/jointset/hip_l/hip_adduction_l/value	/jointset/hip_l/hip_rotation_l/value	/jointset/back/lumbar_extension/value	/jointset/patellofemoral_l/patellar_flexion_l/value	/jointset/knee_l/knee_flexion_l/value	/jointset/knee_l/knee_adduction_l/value	/jointset/knee_l/knee_rotation_l/value	/jointset/ankle_l/ankle_angle_l/value	/jointset/subtalar_l/subtalar_angle_l/value	/jointset/ground_pelvis/pelvis_tilt/speed	/jointset/ground_pelvis/pelvis_tx/speed	/jointset/ground_pelvis/pelvis_ty/speed	/jointset/hip_l/hip_flexion_l/speed	/jointset/hip_l/hip_adduction_l/speed	/jointset/hip_l/hip_rotation_l/speed	/jointset/back/lumbar_extension/speed	/jointset/patellofemoral_l/patellar_flexion_l/speed	/jointset/knee_l/knee_flexion_l/speed	/jointset/knee_l/knee_adduction_l/speed	/jointset/knee_l/knee_rotation_l/speed	/jointset/ankle_l/ankle_angle_l/speed	/jointset/subtalar_l/subtalar_angle_l/speed	/forceset/tau_hip_flexion_l	/forceset/tau_hip_adduction_l	/forceset/tau_hip_rotation_l	/forceset/tau_knee_flexion_l	/forceset/tau_ankle_angle_l	/forceset/tau_subtalar_angle_l	/forceset/tau_lumbar_extension	lambda_cid13_p0	lambda_cid13_p1	lambda_cid13_p2	lambda_cid13_p3	lambda_cid13_p4	lambda_cid13_p5	lambda_cid14_p0	/jointset/ground_pelvis/pelvis_tilt/accel	/jointset/ground_pelvis/pelvis_tx/accel	/jointset/ground_pelvis/pelvis_ty/accel	/jointset/hip_l/hip_flexion_l/accel	/jointset/hip_l/hip_adduction_l/accel	/jointset/hip_l/hip_rotation_l/accel	/jointset/back/lumbar_extension/accel	/jointset/patellofemoral_l/patellar_flexion_l/accel	/jointset/knee_l/knee_flexion_l/accel	/jointset/knee_l/knee_adduction_l/accel	/jointset/knee_l/knee_rotation_l/accel	/jointset/ankle_l/ankle_angle_l/accel	/jointset/subtalar_l/subtalar_angle_l/accel	gamma_cid13_p0	gamma_cid13_p1	gamma_cid13_p2	gamma_cid13_p3	gamma_cid13_p4	gamma_cid13_p5	gamma_cid14_p0
1	-0.1115656490708122	-0.06019901475696354	0.6803562059476383	1.335043361914747	-0.3276402336944885	0.07314243139985317	-0.9599301240119152	1.401870369178194	1.401870369178194	-0.06493169268347861	-0.1745301571070544	0.2763021764647276	0.06416742616373702	0.1019145759097619	0.02527477533844723	0.06969218369632861	-0.2959880306466294	-0.007335139465426756	-0.06485251800943873	-0.0001593975674859805	-0.1595162325228461	-0.1595162325228558	-0.001828685204063664	-3.053948581914439e-05	0.02583205109499951	0.00274053092233095	-0.3742638721219785	0.01177087426965464	0.001506326729009225	-0.3774940280098456	0.04074547842463534	0.02828906625143496	0.4262848985684724	-38.08163637429893	-4.883546150500425	-0.5147998549855045	13.59482955517153	-800.3249772247984	-72.69838361439591	-0.04152567189879429	0.824305620631925	-0.01013550439859787	1.55529236332657	-4.998657929256042	-0.1328980480125526	-1.664783303324198	-0.0004450781671929242	-5.015842002114468	-5.015842002114473	-0.3606304981548066	-0.01588946236094314	-1.19744408675007	-0.6745559650511987	-8.989769992711244e-09	1.947546021938873e-08	6.397679835821535e-08	6.200429250731904e-09	-2.352602017353603e-08	1.26085086062034e-07	-1.683677752265692e-08
1.01	-0.110505633215953	-0.05994670982466598	0.6811306796011151	1.331834375138411	-0.3277194619730522	0.07240982405827504	-0.9599310477876234	1.400024791522718	1.400024791522721	-0.06496605562583183	-0.174530300723384	0.2765007512028697	0.06416219167349123	0.1100915743792332	0.02519350014433343	0.08519147631342036	-0.3457925270496355	-0.008500907616846272	-0.08166398765195533	-3.318639766151918e-06	-0.2095917968022942	-0.2095917968022854	-0.005038979025371458	6.20744970769339e-07	0.0138716250206522	-0.003779647131325237	-0.3735339883405099	0.01195551769958568	0.001430094884467378	-0.3772233805067305	0.04058761920197673	0.02844081857560338	0.4259809454715192	-38.09578248448331	-4.961791619679243	-0.4854015342994857	13.45446139863789	-799.9814007034081	-72.77466707475537	-0.04156000195736732	0.8148418115700229	-0.006027270111417041	1.545580981405253	-4.968828740740991	-0.1069824098717936	-1.688602158930062	0.02694021796335892	-5.002283752651762	-5.002283752648985	-0.3005014738301252	0.01246203309991083	-1.197032846812795	-0.6395941505674217	-1.637080479457629e-08	1.20895322334652e-08	9.237413663163003e-08	1.443342699961197e-08	-3.056222190595337e-08	1.459286522035635e-07	-2.305073990926264e-08
1.02	-0.1093637584061061	-0.05969499839294827	0.6820598128348635	1.328127846749061	-0.327810061175363	0.07150924734742815	-0.9599297496060807	1.397678684202089	1.397678684202096	-0.06503237603634027	-0.1745301640839445	0.2765793834844611	0.06409198631769997	0.1182863669073166	0.02515607522247553	0.1006240997507027	-0.3954963532493652	-0.009609324214871403	-0.09844639186305924	0.0002849938768253122	-0.2596221655534139	-0.2596221655533865	-0.008220178835133493	2.5511667798777e-05	0.001843559784875333	-0.01025364218676533	-0.3728041045590418	0.01214016112951605	0.001353863039931938	-0.3769527330036155	0.04042975997931791	0.02859257089977068	0.4256769923745656	-38.1214462868155	-5.036502408244234	-0.4583007900033285	13.37243871923209	-799.7838679080096	-72.82548916692781	-0.04159498239851781	0.8278644323543741	-0.001365449947420105	1.54195852736468	-4.978523888600745	-0.1214277373336757	-1.658970217041664	0.02600163960713581	-5.006802896448782	-5.006802896448777	-0.354811695845655	-0.01714332395332464	-1.210971919035981	-0.6653193654079815	-2.348977630893832e-08	2.902710710686894e-09	1.213544204626086e-07	2.098308232601965e-08	-3.733212956728923e-08	1.650776518866044e-07	-2.964572932610924e-08
1.03	-0.1081404169828342	-0.05944319203828746	0.6831428858068627	1.32392517062159	-0.3279114400129028	0.0704411003272937	-0.9599227561675746	1.39483260840405	1.394832608404054	-0.06513040940499613	-0.174529776245499	0.276537709656849	0.06395744654224578	0.1263286912546359	0.02523779189013875	0.1159743868162668	-0.4449854466378195	-0.01065775684696936	-0.1151713118552505	0.001350357855827884	-0.309575474102482	-0.3095754741024571	-0.01138642861850078	4.867992186399891e-05	-0.01015862580711046	-0.0166328420065126	-0.3736118624534885	0.01244795992793666	0.001235597587145302	-0.3761242271875163	0.04008050924239785	0.02887925100695803	0.4272085142937276	-38.23649632241878	-5.171504319786714	-0.4017781518938002	12.85001954568134	-800.4865231904913	-72.8895932952442	-0.04163705192784899	0.784429879673366	0.01783519489304485	1.529138760346302	-4.926092138497181	-0.09526196537020212	-1.677526728906386	0.1823033818510969	-4.986959552445533	-4.986959552445882	-0.2975404721875251	0.01157550039271597	-1.191888853844583	-0.6210161637608955	-3.060607370812174e-08	-6.302487276753201e-09	1.503406527176439e-07	2.751556068893271e-08	-4.409931994218549e-08	1.842195641568036e-07	-3.624460677387667e-08
1.04	-0.1068382496273385	-0.05918958952299604	0.6843789766423563	1.31922920554533	-0.3280230453646077	0.06920604933951706	-0.9598980091683214	1.391487526576859	1.391487526576858	-0.0652601070420069	-0.1745292510044522	0.2763766045784041	0.06375975559389356	0.1340515533520621	0.02551530734859795	0.1312276724495922	-0.4941541430074491	-0.01165462704796119	-0.1318271853913833	0.003835706027001628	-0.3594233713839385	-0.3594233713839156	-0.01455303250607825	5.299218818002073e-05	-0.0220426903816847	-0.02288387676637189	-0.3744196203479309	0.01275575872635731	0.001117332134360853	-0.3752957213714169	0.0397312585054769	0.02916593111414501	0.4287400362128935	-38.36330703263648	-5.302877220109224	-0.3476272824289589	12.38459509595815	-801.3393705961541	-72.92863627062522	-0.0416783937561199	0.7639719823757471	0.03779430821177569	1.522558240916932	-4.914444484835784	-0.111115251112452	-1.64516092582998	0.3099984780413813	-4.985720642926444	-4.985720642926391	-0.3548825166876924	-0.02091452150316511	-1.187347715553671	-0.6396863534303864	-3.500607042445632e-08	-1.718090264845746e-08	1.765540569946423e-07	2.869627337007564e-08	-4.969435152682902e-08	1.941392658506064e-07	-4.180055386859554e-08
1.05	-0.105460193133806	-0.05893225201365148	0.6857670521540158	1.314043094828275	-0.3281443199701026	0.06780487561564705	-0.9598419016262641	1.387644633058522	1.387644633058521	-0.06542147067719098	-0.1745287616295484	0.2760972052063161	0.06350024282803257	0.1415306455487395	0.02598289784585097	0.146364822587439	-0.5430190961108272	-0.0125864994967607	-0.1483910683740079	0.00756549006829759	-0.4091239774273296	-0.4091239774273295	-0.01771433335233685	4.422100675791239e-05	-0.03382172485079207	-0.02899109782215545	-0.3745491000214468	0.01305516835593966	0.0009660637798496641	-0.3742516924539017	0.03959751214011768	0.0295085417144626	0.4295916206150407	-38.37396958494389	-5.486354191342913	-0.2766292245417882	11.86911348353194	-801.4820469873459	-73.01620870727972	-0.04173417241715959	0.7355095025269527	0.05585287149866617	1.505891199287905	-4.865190019456834	-0.0821744721440079	-1.65956675490233	0.431421519768396	-4.957517836041457	-4.957517836044898	-0.2959747550785936	0.009088014611129722	-1.170865201598544	-0.5921223987058605	-3.932118274445189e-08	-2.811160606341995e-08	2.02680810397327e-07	2.970974337366329e-08	-5.525275314927716e-08	2.037707734638967e-07	-4.732390938978165e-08
1.06	-0.1040082193854641	-0.05866931630913107	0.6873058187268678	1.308369800720913	-0.3282745035461614	0.06623855010786561	-0.9597431056132755	1.383305676029551	1.38330567602955	-0.06561429149813441	-0.1745283706802455	0.2757004787117353	0.06318048136820306	0.1488350043139453	0.0266349463837693	0.1613658846880597	-0.591590821068926	-0.01343642116077256	-0.1648575421735781	0.01237340021338112	-0.4586360735105611	-0.458636073510584	-0.02084446965794119	3.330706825030136e-05	-0.04550811488027055	-0.03493361556007996	-0.3746785796949618	0.01335457798552177	0.0008147954253404172	-0.3732076635363865	0.03946376577475817	0.02985115231477972	0.4304432050171887	-38.39653866160403	-5.666144192687419	-0.208049221352979	11.40848519856026	-801.7776449292238	-73.08017212521793	-0.04178828962183132	0.7290252960814081	0.0746859163448383	1.49534063347171	-4.855798855779961	-0.09472509415492378	-1.625679089219097	0.5256236987988994	-4.948018650894501	-4.948018650894503	-0.3486496085568382	-0.02134307292026915	-1.168818827627894	-0.6067456898585785	-4.406438733797832e-08	-4.010264263445526e-08	2.264295881162589e-07	3.137638923781246e-08	-6.094404474785813e-08	2.103007577851705e-07	-5.248119675435357e-08
1.07	-0.1024841483504011	-0.05839892661659041	0.6889938456308582	1.30221245738231	-0.3284127475064434	0.06450813824627773	-0.9595908032944485	1.378472602084653	1.37847260208465	-0.06583830223611045	-0.1745280949629863	0.2751872883109331	0.06280213837770293	0.1559416227915727	0.0274748945810558	0.1762098263769502	-0.639807978018598	-0.0141949173420011	-0.1812045618930392	0.01827217171741222	-0.5079415574366478	-0.5079415574366482	-0.02395099827753833	2.246515768087373e-05	-0.05712052712160307	-0.04070418450048605	-0.3744618658451984	0.0136561329099893	0.0006327063455196897	-0.3719634689192102	0.03950475114090671	0.03026267540221426	0.4310142583397308	-38.3320491314172	-5.899521837769922	-0.1213130884369489	10.85175826172314	-801.667508650207	-73.20109640426942	-0.04185597259328876	0.6958390857790694	0.09344127954121115	1.474457067572794	-4.79419971926752	-0.06381984544127826	-1.636220770183422	0.6497701010191949	-4.916227962146686	-4.916227962143285	-0.2906836914698317	0.009194746565497725	-1.156040658344397	-0.5576137021252191	-4.883036279711811e-08	-5.215007990528168e-08	2.50051877766906e-07	3.307777849880002e-08	-6.664240496219085e-08	2.166657674632519e-07	-5.761901240846729e-08
